<?xml version="1.0" standalone="no"?>
<!DOCTYPE svg PUBLIC "-//W3C//DTD SVG 20010904//EN"
 "http://www.w3.org/TR/2001/REC-SVG-20010904/DTD/svg10.dtd">
<svg version="1.0" xmlns="http://www.w3.org/2000/svg"
 width="1080.000000pt" height="1080.000000pt" viewBox="0 0 1080.000000 1080.000000"
 preserveAspectRatio="xMidYMid meet">
<metadata>
Created by potrace 1.16, written by Peter Selinger 2001-2019
</metadata>
<g transform="translate(0.000000,1080.000000) scale(0.100000,-0.100000)"
fill="#000000" stroke="none">
<path d="M1428 9683 l-58 -4 0 -1003 0 -1003 83 -6 c45 -4 1296 -7 2781 -7
l2698 0 62 -30 c78 -37 176 -136 214 -217 24 -53 27 -69 27 -173 0 -104 -3
-120 -27 -173 -36 -77 -126 -169 -201 -207 l-60 -30 -2706 0 c-1488 0 -2743
-3 -2788 -7 l-83 -6 0 -1677 0 -1677 83 -6 c107 -9 2347 -9 2455 0 l82 6 0
663 0 663 1828 4 c1368 3 1847 7 1907 16 470 71 842 225 1193 495 441 339 752
818 882 1361 51 211 64 328 64 575 0 262 -15 384 -74 617 -84 329 -240 641
-460 918 -99 125 -293 312 -430 414 -345 257 -689 403 -1122 474 l-133 21
-3080 1 c-1694 1 -3106 0 -3137 -2z"/>
<path d="M9230 5458 c-122 -127 -221 -210 -375 -313 -309 -207 -732 -371
-1091 -426 l-82 -12 39 -60 c48 -74 94 -192 110 -282 19 -111 7 -294 -25 -390
-77 -225 -220 -390 -431 -495 -55 -27 -138 -60 -185 -72 l-85 -23 -2867 -2
-2868 -3 0 -990 0 -990 3183 0 c2740 0 3196 2 3285 15 638 91 1209 466 1600
1050 154 230 304 582 366 861 53 234 61 318 60 634 0 254 -3 314 -22 427 -50
306 -136 567 -273 833 -62 120 -207 343 -224 346 -5 0 -57 -48 -115 -108z"/>
</g>
</svg>
